<?xml version="1.0" encoding="utf-8"?>
<!-- Generator: Adobe Illustrator 19.0.0, SVG Export Plug-In . SVG Version: 6.00 Build 0)  -->
<svg version="1.1" xmlns="http://www.w3.org/2000/svg" xmlns:xlink="http://www.w3.org/1999/xlink" x="0px" y="0px"
	 viewBox="0 0 655 653.2" style="enable-background:new 0 0 655 653.2;" xml:space="preserve">
<style type="text/css">
	.st0{display:none;}
	.st1{display:inline;fill:#009487;}
	.st2{fill:#2E602E;}
	.st3{fill:none;stroke:#2E602E;stroke-width:6;stroke-miterlimit:10;}
	.st4{fill:#468746;}
	.st5{fill:#3D703D;}
	.st6{fill:#4D824D;}
	.st7{fill:#689B68;}
	.st8{fill:#86B586;}
	.st9{fill:#95D195;}
	.st10{fill:#CCFFCC;}
	.st11{fill:#CCCC66;}
	.st12{fill:#E5E28F;}
	.st13{fill:#F4F1B5;}
	.st14{fill:#BAE5BA;}
	.st15{fill:#CAEACA;}
	.st16{fill:#E1EFE1;}
	.st17{fill:#EFF4EF;}
	.st18{fill:#F9F8F4;}
</style>
<g id="Layer_2" class="st0">
	<rect id="XMLID_369_" x="9.3" y="-413.5" class="st1" width="3440.5" height="1074.7"/>
</g>
<g id="Layer_1">
	<g id="XMLID_272_">
		<g id="XMLID_273_">
			
				<image style="overflow:visible;" width="655" height="644" id="XMLID_538_" xlink:href="BA036F2718C2636.png"  transform="matrix(1 0 0 1 0 29.1599)">
			</image>
			<g id="XMLID_506_">
				<path id="XMLID_531_" class="st2" d="M513.2,193.2L513.2,193.2c-36.7-5.3-68.5-28.4-84.9-61.7l-2.6-5.1
					c-40.6-81.2-156.6-81.2-197.2,0l0,0c-17.3,34.6-49.6,59.2-87.5,66.8l-4.5,0.9c-88.9,17.8-122.1,127.4-58,191.5l3.2,3.2
					c25.3,25.3,36.3,61.6,29.3,96.7l0,0c-18.2,90.8,76,162.7,158.8,121.3l4.8-2.4c33-16.5,71.9-16.5,105,0l0,0
					c82.8,43.5,179.5-26.8,163.7-118.9l0,0c-6.3-36.6,5.9-73.9,32.4-99.8l0,0C642.7,320.4,605.7,206.7,513.2,193.2z M80.4,280l0.3-1
					c8.9-31.1,42.2-63.8,95.1-61.7c62.6,2.5,128.1,121.2,117.7,131.4c2.4,14.3-120.3,71.9-172.5,37.1C77,356.4,69.3,310.4,80.4,280z
					 M288.1,563.3c-41.5,32.8-87.7,25.9-113.2,6l-0.8-0.6c-26.8-18-47.6-59.9-29.3-109.5c21.7-58.8,162.3-86.8,168.8-73.8
					C328,387.6,337.4,524.5,288.1,563.3z M326.7,324.6c-12.9,6.7-105.5-92.2-88.5-152.6c14.3-50.9,55.7-72.4,88-71.4h1
					c32.3-1,73.7,20.5,88,71.4C432.3,232.3,339.6,331.3,326.7,324.6z M479.3,568.7l-0.8,0.6c-25.4,19.9-71.6,26.8-113.2-6
					c-49.2-38.8-37-172.4-22.7-174.6c6.5-13,144.2,11.7,165.9,70.5C527,508.8,506.2,550.6,479.3,568.7z M532.5,385.8
					C480.3,420.6,357.6,363,360,348.7c-10.3-10.2,55.1-128.9,117.7-131.4c52.8-2.1,86.2,30.6,95.1,61.7l0.3,1
					C584.2,310.4,576.5,356.4,532.5,385.8z"/>
				<g id="XMLID_523_">
					<path id="XMLID_524_" class="st3" d="M513.2,193.2L513.2,193.2c-36.7-5.3-68.5-28.4-84.9-61.7l-2.6-5.1
						c-40.6-81.2-156.6-81.2-197.2,0l0,0c-17.3,34.6-49.6,59.2-87.5,66.8l-4.5,0.9c-88.9,17.8-122.1,127.4-58,191.5l3.2,3.2
						c25.3,25.3,36.3,61.6,29.3,96.7l0,0c-18.2,90.8,76,162.7,158.8,121.3l4.8-2.4c33-16.5,71.9-16.5,105,0l0,0
						c82.8,43.5,179.5-26.8,163.7-118.9l0,0c-6.3-36.6,5.9-73.9,32.4-99.8l0,0C642.7,320.4,605.7,206.7,513.2,193.2z M80.4,280
						l0.3-1c8.9-31.1,42.2-63.8,95.1-61.7c62.6,2.5,128.1,121.2,117.7,131.4c2.4,14.3-120.3,71.9-172.5,37.1
						C77,356.4,69.3,310.4,80.4,280z M288.1,563.3c-41.5,32.8-87.7,25.9-113.2,6l-0.8-0.6c-26.8-18-47.6-59.9-29.3-109.5
						c21.7-58.8,162.3-86.8,168.8-73.8C328,387.6,337.4,524.5,288.1,563.3z M326.7,324.6c-12.9,6.7-105.5-92.2-88.5-152.6
						c14.3-50.9,55.7-72.4,88-71.4h1c32.3-1,73.7,20.5,88,71.4C432.3,232.3,339.6,331.3,326.7,324.6z M479.3,568.7l-0.8,0.6
						c-25.4,19.9-71.6,26.8-113.2-6c-49.2-38.8-37-172.4-22.7-174.6c6.5-13,144.2,11.7,165.9,70.5
						C527,508.8,506.2,550.6,479.3,568.7z M532.5,385.8C480.3,420.6,357.6,363,360,348.7c-10.3-10.2,55.1-128.9,117.7-131.4
						c52.8-2.1,86.2,30.6,95.1,61.7l0.3,1C584.2,310.4,576.5,356.4,532.5,385.8z"/>
				</g>
			</g>
		</g>
		<path id="XMLID_280_" class="st4" d="M536.2,160L536.2,160c-41.3-6-77-31.9-95.4-69.3l0,0c-46.5-94.2-180.8-94.2-227.3,0l0,0
			C195,128.1,159.3,154,118,160l0,0C14,175.1-27.5,302.9,47.8,376.2l0,0c29.9,29.1,43.5,71.1,36.5,112.2l0,0
			C66.5,591.9,175.1,670.9,268.1,622l0,0c36.9-19.4,81-19.4,118,0l0,0c93,48.9,201.7-30.1,183.9-133.6l0,0
			c-7.1-41.1,6.6-83.1,36.5-112.2l0,0C681.7,302.9,640.2,175.1,536.2,160z M49.9,257.5l0.4-1.1c10-34.9,47.4-71.7,106.8-69.3
			c70.4,2.8,143.9,136.1,132.3,147.6c2.7,16.1-135.2,80.7-193.8,41.6C46.1,343.4,37.4,291.6,49.9,257.5z M283.3,575.8
			c-46.6,36.8-98.6,29.1-127.1,6.7l-0.9-0.7c-30.1-20.3-53.5-67.3-32.9-123c24.4-66.1,174-94.8,181.3-80.2
			C319.7,381.1,338.6,532.2,283.3,575.8z M326.7,307.6c-14.5,7.5-118.6-104.5-99.5-172.4c16.1-57.2,62.6-82.1,98.9-81.1h1.2
			c36.3-1,82.8,23.9,98.9,81.1C445.3,203,341.2,315.1,326.7,307.6z M498.2,581.9l-0.9,0.7c-28.6,22.4-80.5,30.1-127.1-6.7
			c-55.3-43.6-36.4-194.7-20.3-197.2c7.3-14.6,156.8,14.2,181.3,80.2C551.7,514.6,528.3,561.6,498.2,581.9z M557.9,376.4
			c-58.6,39.1-196.5-25.6-193.8-41.6c-11.6-11.5,61.9-144.8,132.3-147.6c59.4-2.4,96.9,34.4,106.8,69.3l0.4,1.1
			C616,291.6,607.3,343.4,557.9,376.4z"/>
		<circle id="XMLID_287_" class="st2" cx="326.2" cy="344.6" r="102.1"/>
		<circle id="XMLID_288_" class="st5" cx="326.2" cy="344.6" r="91"/>
		<circle id="XMLID_289_" class="st6" cx="326.2" cy="344.6" r="77.9"/>
		<circle id="XMLID_290_" class="st7" cx="326.2" cy="344.6" r="59.3"/>
		<circle id="XMLID_291_" class="st8" cx="326.2" cy="344.6" r="45.5"/>
		<path id="XMLID_292_" class="st9" d="M524.6,169.4L524.6,169.4c-39-5.7-72.7-30.2-90.1-65.5l0,0c-43.9-89-170.8-89-214.7,0l0,0
			c-17.4,35.3-51.1,59.8-90.1,65.5l0,0C31.5,183.6-7.7,304.3,63.3,373.5l0,0c28.2,27.5,41.1,67.1,34.4,105.9l0,0
			C81,577.3,183.6,651.8,271.4,605.7l0,0c34.9-18.3,76.5-18.3,111.4,0l0,0c87.8,46.2,190.4-28.4,173.7-126.2l0,0
			c-6.7-38.8,6.2-78.4,34.4-105.9l0,0C661.9,304.3,622.7,183.6,524.6,169.4z M65.3,261.5l0.3-1.1c9.4-33,44.8-67.7,100.9-65.4
			c66.5,2.7,135.9,128.6,124.9,139.4c2.5,15.2-127.7,76.2-183,39.3C61.7,342.6,53.5,293.7,65.3,261.5z M285.8,562.1
			c-44,34.8-93.1,27.5-120.1,6.3l-0.9-0.6c-28.5-19.1-50.5-63.5-31.1-116.2c23.1-62.4,164.3-89.5,171.2-75.8
			C320.1,378.2,338,520.8,285.8,562.1z M326.7,308.8c-13.7,7.1-112-97.9-94-161.9c15.2-54,59.1-76.7,93.4-75.7h1.1
			c34.3-1,78.2,21.7,93.4,75.7C438.7,210.9,340.4,315.8,326.7,308.8z M488.6,567.8l-0.9,0.6c-27,21.2-76,28.4-120.1-6.3
			c-52.2-41.2-34.4-183.9-19.2-186.2c6.9-13.8,148.1,13.4,171.2,75.8C539.2,504.3,517.1,548.6,488.6,567.8z M545,373.7
			c-55.3,36.9-185.5-24.1-183-39.3c-11-10.8,58.5-136.7,124.9-139.4c56.1-2.2,91.5,32.5,100.9,65.4l0.3,1.1
			C599.9,293.7,591.7,342.6,545,373.7z"/>
		<path id="XMLID_299_" class="st10" d="M513.2,178.5L513.2,178.5c-36.7-5.3-68.5-28.4-84.9-61.7l0,0c-41.4-83.8-160.9-83.8-202.3,0
			l0,0c-16.4,33.3-48.2,56.4-84.9,61.7l0,0C48.5,192,11.5,305.7,78.5,370.9l0,0c26.6,25.9,38.7,63.3,32.4,99.8l0,0
			c-15.8,92.2,80.9,162.4,163.7,118.9l0,0c32.9-17.3,72.1-17.3,105,0l0,0c82.8,43.5,179.5-26.8,163.7-118.9l0,0
			c-6.3-36.6,5.9-73.9,32.4-99.8l0,0C642.7,305.7,605.7,192,513.2,178.5z M80.4,265.3l0.3-1c8.9-31.1,42.2-63.8,95.1-61.7
			c62.6,2.5,128.1,121.2,117.7,131.4c2.4,14.3-120.3,71.9-172.5,37.1C77,341.7,69.3,295.7,80.4,265.3z M288.1,548.6
			c-41.5,32.8-87.7,25.9-113.2,6l-0.8-0.6c-26.8-18-47.6-59.9-29.3-109.5c21.7-58.8,154.8-84.4,161.3-71.4
			C320.5,375.3,337.4,509.8,288.1,548.6z M326.7,309.9c-12.9,6.7-105.5-93.1-88.5-153.5c14.3-50.9,55.7-72.2,88-72.2h1
			c32.3,0,73.7,21.3,88,72.2C432.3,216.8,339.6,316.6,326.7,309.9z M479.3,554l-0.8,0.6c-25.4,19.9-71.6,26.8-113.2-6
			c-49.2-38.8-32.4-173.3-18-175.5c6.5-13,139.6,12.6,161.3,71.4C527,494.1,506.2,535.9,479.3,554z M532.5,371.1
			C480.3,405.9,357.6,348.4,360,334c-10.3-10.2,55.1-128.9,117.7-131.4c52.8-2.1,86.2,30.6,95.1,61.7l0.3,1
			C584.2,295.7,576.5,341.7,532.5,371.1z"/>
		<g id="XMLID_306_">
			<path id="XMLID_307_" class="st11" d="M315,222.2c11.1,15.4,11.9,37.3,10.8,46.4c-0.3,2.2-2,3.9-4.3,4.1
				c-9.1,0.8-31.6-0.1-46-12.5c-20.4-17.5-21.2-39.6-10.3-50.1C276.1,199.6,296.7,197.1,315,222.2z"/>
			<path id="XMLID_308_" class="st12" d="M305.7,219.5c7.6,10.5,8.2,25.6,7.4,31.8c-0.2,1.5-1.4,2.7-2.9,2.8
				c-6.2,0.5-21.6-0.1-31.5-8.5c-14-12-14.5-27.1-7.1-34.3S293.2,202.3,305.7,219.5z"/>
			<path id="XMLID_309_" class="st13" d="M296.7,215.3c2.2,2.5,3.6,5.7,4.4,8.6c1.6,5.6-3,10.9-8.8,10.2c-3.1-0.4-6.4-1.3-9.1-3.3
				c-8.2-5.9-9.2-14.1-5.5-18.4C281.5,208.1,289.1,206.4,296.7,215.3z"/>
			<path id="XMLID_310_" class="st11" d="M339.1,222.2c-11.1,15.4-11.9,37.3-10.8,46.4c0.3,2.2,2,3.9,4.3,4.1
				c9.1,0.8,31.6-0.1,46-12.5c20.4-17.5,21.2-39.6,10.3-50.1C377.9,199.6,357.3,197.1,339.1,222.2z"/>
			<path id="XMLID_311_" class="st12" d="M352,219.5c-7.6,10.5-8.2,25.6-7.4,31.8c0.2,1.5,1.4,2.7,2.9,2.8
				c6.2,0.5,21.6-0.1,31.5-8.5c14-12,14.5-27.1,7.1-34.3C378.7,204,364.5,202.3,352,219.5z"/>
			<path id="XMLID_312_" class="st13" d="M361,215.3c-2.2,2.5-3.6,5.7-4.4,8.6c-1.6,5.6,3,10.9,8.8,10.2c3.1-0.4,6.4-1.3,9.1-3.3
				c8.2-5.9,9.2-14.1,5.5-18.4C376.3,208.1,368.6,206.4,361,215.3z"/>
		</g>
		<g id="XMLID_313_">
			<path id="XMLID_314_" class="st11" d="M315,222.2c11.1,15.4,11.9,37.3,10.8,46.4c-0.3,2.2-2,3.9-4.3,4.1
				c-9.1,0.8-31.6-0.1-46-12.5c-20.4-17.5-21.2-39.6-10.3-50.1C276.1,199.6,296.7,197.1,315,222.2z"/>
			<path id="XMLID_315_" class="st12" d="M305.7,219.5c7.6,10.5,8.2,25.6,7.4,31.8c-0.2,1.5-1.4,2.7-2.9,2.8
				c-6.2,0.5-21.6-0.1-31.5-8.5c-14-12-14.5-27.1-7.1-34.3S293.2,202.3,305.7,219.5z"/>
			<path id="XMLID_316_" class="st13" d="M296.7,215.3c2.2,2.5,3.6,5.7,4.4,8.6c1.6,5.6-3,10.9-8.8,10.2c-3.1-0.4-6.4-1.3-9.1-3.3
				c-8.2-5.9-9.2-14.1-5.5-18.4C281.5,208.1,289.1,206.4,296.7,215.3z"/>
			<path id="XMLID_317_" class="st11" d="M339.1,222.2c-11.1,15.4-11.9,37.3-10.8,46.4c0.3,2.2,2,3.9,4.3,4.1
				c9.1,0.8,31.6-0.1,46-12.5c20.4-17.5,21.2-39.6,10.3-50.1C377.9,199.6,357.3,197.1,339.1,222.2z"/>
			<path id="XMLID_318_" class="st12" d="M352,219.5c-7.6,10.5-8.2,25.6-7.4,31.8c0.2,1.5,1.4,2.7,2.9,2.8
				c6.2,0.5,21.6-0.1,31.5-8.5c14-12,14.5-27.1,7.1-34.3C378.7,204,364.5,202.3,352,219.5z"/>
			<path id="XMLID_319_" class="st13" d="M361,215.3c-2.2,2.5-3.6,5.7-4.4,8.6c-1.6,5.6,3,10.9,8.8,10.2c3.1-0.4,6.4-1.3,9.1-3.3
				c8.2-5.9,9.2-14.1,5.5-18.4C376.3,208.1,368.6,206.4,361,215.3z"/>
		</g>
		<g id="XMLID_320_">
			<path id="XMLID_321_" class="st11" d="M205.1,319.4c18-6.2,39.2-0.5,47.6,3.2c2,0.9,3.2,3.1,2.7,5.3c-1.9,8.9-9.3,30.2-25.4,40.4
				c-22.7,14.4-44.1,8.7-50.9-4.8C172.2,350,175.7,329.5,205.1,319.4z"/>
			<path id="XMLID_322_" class="st12" d="M199.8,327.5c12.3-4.2,26.8-0.3,32.6,2.2c1.4,0.6,2.2,2.1,1.8,3.6
				c-1.3,6.1-6.4,20.7-17.4,27.7c-15.5,9.9-30.2,6-34.9-3.3C177.2,348.4,179.6,334.4,199.8,327.5z"/>
			<path id="XMLID_323_" class="st13" d="M193.1,334.8c3-1.4,6.4-1.8,9.5-1.7c5.8,0.1,9.6,6.1,7.2,11.4c-1.3,2.8-3.1,5.7-5.8,7.8
				c-8,6.1-16.2,4.7-19.2-0.1C181.8,347.3,182.4,339.6,193.1,334.8z"/>
			<path id="XMLID_324_" class="st11" d="M212.1,296.4c11.4,15.2,32.2,22.3,41.2,23.9c2.2,0.4,4.3-0.8,5.2-2.9
				c3.4-8.5,9.1-30.2,1.5-47.6c-10.7-24.6-31.7-31.8-44.9-24.5C201.9,252.6,193.4,271.6,212.1,296.4z"/>
			<path id="XMLID_325_" class="st12" d="M213.3,283.2c7.8,10.4,22.1,15.3,28.2,16.4c1.5,0.3,3-0.5,3.5-2c2.3-5.8,6.3-20.7,1.1-32.6
				c-7.4-16.9-21.7-21.8-30.8-16.8C206.3,253.2,200.5,266.2,213.3,283.2z"/>
			<path id="XMLID_326_" class="st13" d="M211.9,273.4c1.8,2.8,4.4,5.1,7,6.7c4.9,3.2,11.3,0.3,12.3-5.4c0.5-3.1,0.6-6.5-0.5-9.7
				c-3.2-9.6-10.8-13-16-10.6C209.5,256.7,205.7,263.5,211.9,273.4z"/>
		</g>
		<g id="XMLID_327_">
			<path id="XMLID_328_" class="st11" d="M264.1,451.9c-0.3-19,11.6-37.4,17.7-44.2c1.5-1.7,3.9-2,5.8-0.9
				c7.9,4.6,25.8,18.2,30.5,36.6c6.7,26-5.4,44.6-20.3,47S264.6,482.9,264.1,451.9z"/>
			<path id="XMLID_329_" class="st12" d="M270.1,459.4c-0.2-13,8-25.6,12.2-30.3c1-1.1,2.7-1.4,4-0.6c5.4,3.2,17.7,12.5,20.9,25.1
				c4.6,17.8-3.7,30.6-13.9,32.2C283.1,487.3,270.5,480.7,270.1,459.4z"/>
			<path id="XMLID_330_" class="st13" d="M275,468c-0.3-3.3,0.3-6.7,1.3-9.6c1.9-5.5,8.7-7.2,13.1-3.3c2.3,2.1,4.5,4.8,5.6,7.9
				c3.4,9.5-0.6,16.9-6.1,18.2S276.2,479.6,275,468z"/>
			<path id="XMLID_331_" class="st11" d="M244.3,438c18-6.2,31.2-23.7,35.5-31.8c1.1-2,0.6-4.4-1.1-5.8c-7-5.8-25.9-18-44.8-16.2
				c-26.8,2.6-40.1,20.3-37.2,35.1C199.6,434.2,215,448.2,244.3,438z"/>
			<path id="XMLID_332_" class="st12" d="M232.1,432.8c12.3-4.2,21.4-16.3,24.3-21.8c0.7-1.3,0.4-3-0.8-4
				c-4.8-4-17.8-12.4-30.7-11.1c-18.3,1.8-27.5,13.9-25.5,24.1C201.5,430.2,212,439.8,232.1,432.8z"/>
			<path id="XMLID_333_" class="st13" d="M222.4,431.2c3.2-0.8,6.2-2.6,8.6-4.5c4.5-3.7,3.8-10.7-1.4-13.4c-2.8-1.4-6-2.6-9.4-2.5
				c-10.1,0.1-15.7,6.3-15.1,11.9S211.1,434,222.4,431.2z"/>
		</g>
		<g id="XMLID_334_">
			<path id="XMLID_335_" class="st11" d="M408.3,436.7c-18.2-5.6-32-22.6-36.6-30.5c-1.1-1.9-0.7-4.4,0.9-5.8
				c6.8-6.1,25.3-18.9,44.2-17.7c26.8,1.7,40.8,18.9,38.4,33.8C452.8,431.3,438,445.8,408.3,436.7z"/>
			<path id="XMLID_336_" class="st12" d="M417.3,433.3c-12.4-3.8-21.9-15.5-25.1-20.9c-0.8-1.3-0.5-3,0.6-4
				c4.7-4.2,17.3-13,30.3-12.2c18.4,1.1,27.9,12.9,26.3,23.2C447.9,429.6,437.6,439.5,417.3,433.3z"/>
			<path id="XMLID_337_" class="st13" d="M427,431.3c-3.3-0.7-6.2-2.4-8.7-4.2c-4.7-3.5-4.2-10.5,0.9-13.4c2.7-1.5,5.9-2.8,9.3-2.9
				c10.1-0.2,15.9,5.7,15.5,11.4C443.5,427.8,438.4,433.7,427,431.3z"/>
			<path id="XMLID_338_" class="st11" d="M389,451.2c-0.4-19-12.9-37-19.3-43.6c-1.5-1.6-4-1.9-5.9-0.7
				c-7.7,4.9-25.2,19.1-29.2,37.6c-5.8,26.2,6.9,44.4,21.9,46.2C371.6,492.6,389.6,482.3,389,451.2z"/>
			<path id="XMLID_339_" class="st12" d="M380.3,461.2c-0.2-13-8.9-25.3-13.2-29.9c-1.1-1.1-2.7-1.3-4-0.5
				c-5.3,3.3-17.2,13.1-20,25.8c-4,18,4.7,30.4,15,31.7C368.3,489.5,380.7,482.5,380.3,461.2z"/>
			<path id="XMLID_340_" class="st13" d="M375.7,469.9c0.2-3.3-0.6-6.7-1.7-9.5c-2.1-5.4-9-6.9-13.2-2.8c-2.2,2.2-4.3,4.9-5.3,8.1
				c-3,9.6,1.1,16.8,6.7,18C367.8,484.9,374.9,481.6,375.7,469.9z"/>
		</g>
		<g id="XMLID_341_">
			<path id="XMLID_342_" class="st11" d="M438.7,296.8c-11.4,15.2-32.2,22.3-41.2,23.9c-2.2,0.4-4.3-0.8-5.2-2.9
				c-3.4-8.5-9.1-30.2-1.5-47.6c10.7-24.6,31.7-31.8,44.9-24.5C448.9,253.1,457.4,272.1,438.7,296.8z"/>
			<path id="XMLID_343_" class="st12" d="M438.5,287.2c-7.8,10.4-22.1,15.3-28.2,16.4c-1.5,0.3-3-0.5-3.5-2
				c-2.3-5.8-6.3-20.7-1.1-32.6c7.4-16.9,21.7-21.8,30.8-16.8S451.4,270.2,438.5,287.2z"/>
			<path id="XMLID_344_" class="st13" d="M440,277.4c-1.8,2.8-4.4,5.1-7,6.7c-4.9,3.2-11.3,0.3-12.3-5.4c-0.5-3.1-0.6-6.5,0.5-9.7
				c3.2-9.6,10.8-13,16-10.6C442.4,260.7,446.2,267.5,440,277.4z"/>
			<path id="XMLID_345_" class="st11" d="M445.7,319.9c-18-6.2-39.2-0.5-47.6,3.2c-2,0.9-3.2,3.1-2.7,5.3
				c1.9,8.9,9.3,30.2,25.4,40.4c22.7,14.4,44.1,8.7,50.9-4.8S475.1,330,445.7,319.9z"/>
			<path id="XMLID_346_" class="st12" d="M452.1,331.5c-12.3-4.2-26.8-0.3-32.6,2.2c-1.4,0.6-2.2,2.1-1.8,3.6
				c1.3,6.1,6.4,20.7,17.4,27.7c15.5,9.9,30.2,6,34.9-3.3C474.7,352.4,472.2,338.4,452.1,331.5z"/>
			<path id="XMLID_347_" class="st13" d="M458.8,338.8c-3-1.4-6.4-1.8-9.5-1.7c-5.8,0.1-9.6,6.1-7.2,11.4c1.3,2.8,3.1,5.7,5.8,7.8
				c8,6.1,16.2,4.7,19.2-0.1C470.1,351.3,469.4,343.6,458.8,338.8z"/>
		</g>
		<path id="XMLID_348_" class="st10" d="M513.2,178.5L513.2,178.5c-36.7-5.3-68.5-28.4-84.9-61.7l0,0c-41.4-83.8-160.9-83.8-202.3,0
			l0,0c-16.4,33.3-48.2,56.4-84.9,61.7l0,0C48.5,192,11.5,305.7,78.5,370.9l0,0c26.6,25.9,38.7,63.3,32.4,99.8l0,0
			c-15.8,92.2,80.9,162.4,163.7,118.9l0,0c32.9-17.3,72.1-17.3,105,0l0,0c82.8,43.5,179.5-26.8,163.7-118.9l0,0
			c-6.3-36.6,5.9-73.9,32.4-99.8l0,0C642.7,305.7,605.7,192,513.2,178.5z M80.4,265.3l0.3-1c8.9-31.1,42.2-63.8,95.1-61.7
			c62.6,2.5,128.1,121.2,117.7,131.4c2.4,14.3-120.3,71.9-172.5,37.1C77,341.7,69.3,295.7,80.4,265.3z M288.1,548.6
			c-41.5,32.8-87.7,25.9-113.2,6l-0.8-0.6c-26.8-18-47.6-59.9-29.3-109.5c21.7-58.8,154.8-84.4,161.3-71.4
			C320.5,375.3,337.4,509.8,288.1,548.6z M326.7,309.9c-12.9,6.7-105.5-93.1-88.5-153.5c14.3-50.9,55.7-72.2,88-72.2h1
			c32.3,0,73.7,21.3,88,72.2C432.3,216.8,339.6,316.6,326.7,309.9z M479.3,554l-0.8,0.6c-25.4,19.9-71.6,26.8-113.2-6
			c-49.2-38.8-32.4-173.3-18-175.5c6.5-13,139.6,12.6,161.3,71.4C527,494.1,506.2,535.9,479.3,554z M532.5,371.1
			C480.3,405.9,357.6,348.4,360,334c-10.3-10.2,55.1-128.9,117.7-131.4c52.8-2.1,86.2,30.6,95.1,61.7l0.3,1
			C584.2,295.7,576.5,341.7,532.5,371.1z"/>
		<g id="XMLID_355_">
			<path id="XMLID_356_" class="st9" d="M266.4,312.2c-3.7-11.6,3.2-23.2,11.1-29.2c0.7-0.5,14.4-10.6,27.7-4
				c12.6,6.2,14.8,34.8,11.4,36.2c-8.8,3.6-11.7,5.7-16.3,13.3C298.3,332.1,270.8,325.9,266.4,312.2z"/>
			<path id="XMLID_357_" class="st9" d="M275.2,391.3c-12.1-0.3-20.9-10.6-24-20c-0.3-0.8-5.3-17.1,5.2-27.5c10-9.9,37.7-2.7,37.9,1
				c0.6,9.5,1.6,12.9,7.3,19.7C304.4,367.7,289.6,391.7,275.2,391.3z"/>
			<path id="XMLID_358_" class="st9" d="M352.9,408.8c-4.2,11.4-16.8,16.3-26.7,16.2c-0.8,0-17.9-0.5-24.3-13.9
				c-6.1-12.7,9.7-36.5,13.3-35.6c9.2,2.6,12.7,2.7,21-0.5C340,373.5,357.9,395.3,352.9,408.8z"/>
			<path id="XMLID_359_" class="st9" d="M394.7,341c9.4,7.7,10,21.2,6.6,30.5c-0.3,0.8-6.3,16.7-21.1,18.5
				c-14,1.7-31.4-21.1-29.3-24.1c5.4-7.9,6.7-11.2,6.4-20C357.1,341.7,383.6,331.9,394.7,341z"/>
			<path id="XMLID_360_" class="st9" d="M344.2,279.5c10.3-6.4,23.3-2.5,31,3.7c0.6,0.5,13.7,11.4,10.6,25.9
				c-3,13.7-30.2,22.8-32.3,19.8c-5.7-7.7-8.4-10-16.9-12.5C332.6,315.2,332,287,344.2,279.5z"/>
		</g>
		<circle id="XMLID_361_" class="st14" cx="326" cy="345.3" r="37.5"/>
		<circle id="XMLID_362_" class="st15" cx="326" cy="345.3" r="31.2"/>
		<circle id="XMLID_363_" class="st16" cx="326" cy="345.3" r="23.8"/>
		<circle id="XMLID_364_" class="st17" cx="326" cy="345.3" r="18.4"/>
		<circle id="XMLID_365_" class="st18" cx="326" cy="345.3" r="12.6"/>
	</g>
</g>
</svg>
